<?xml version="1.0" standalone="no"?>
<!DOCTYPE svg PUBLIC "-//W3C//DTD SVG 20010904//EN"
 "http://www.w3.org/TR/2001/REC-SVG-20010904/DTD/svg10.dtd">
<svg version="1.0" xmlns="http://www.w3.org/2000/svg"
 width="512.000000pt" height="512.000000pt" viewBox="0 0 512.000000 512.000000"
 preserveAspectRatio="xMidYMid meet">
<metadata>
Created by potrace 1.16, written by Peter Selinger 2001-2019
</metadata>
<g transform="translate(0.000000,512.000000) scale(0.100000,-0.100000)"
fill="#000000" stroke="none">
<path d="M2379 5109 c-20 -4 -47 -10 -60 -13 -72 -13 -183 -75 -211 -118 -8
-13 -14 -36 -13 -53 1 -33 24 -85 36 -85 4 0 14 -6 21 -13 52 -51 246 -102
388 -102 187 0 396 73 433 151 23 48 21 71 -9 112 -27 35 -143 98 -200 108
-16 3 -43 9 -61 13 -39 11 -276 11 -324 0z"/>
<path d="M1807 4733 c-2 -1 -25 -5 -53 -8 -27 -3 -60 -7 -74 -10 -31 -4 -198
-52 -225 -64 -233 -104 -361 -223 -370 -345 -2 -23 2 -47 7 -53 6 -7 8 -13 4
-13 -3 0 4 -11 16 -26 29 -32 109 -82 145 -89 61 -13 89 -16 119 -16 39 0 61
-23 78 -81 13 -42 14 -149 2 -197 -19 -78 -81 -211 -98 -211 -5 0 -8 -6 -8
-12 0 -21 -79 -88 -133 -114 -61 -29 -84 -43 -111 -66 -11 -10 -28 -20 -38
-24 -10 -3 -18 -9 -18 -13 0 -5 -19 -21 -41 -37 -46 -32 -148 -159 -200 -249
-52 -90 -72 -165 -72 -270 0 -85 2 -99 16 -135 3 -8 7 -21 9 -27 2 -7 26 -39
53 -72 86 -102 214 -150 386 -145 52 1 105 5 119 8 14 3 34 8 45 10 11 2 31 9
45 14 14 5 27 10 30 10 3 0 19 6 35 12 17 7 35 13 40 14 14 3 129 60 135 67 3
3 23 16 45 29 22 13 45 29 52 35 6 5 24 20 40 32 16 12 43 35 60 50 47 44 72
63 83 63 6 0 10 4 10 8 0 7 91 55 109 58 3 0 15 4 26 8 54 21 72 27 95 32 25
5 45 9 90 19 69 16 128 20 275 20 146 0 178 -3 255 -20 14 -3 35 -8 47 -11 12
-2 35 -9 50 -16 16 -6 31 -12 34 -12 15 -2 157 -79 182 -99 16 -12 52 -44 81
-72 28 -27 78 -70 111 -95 33 -25 62 -47 65 -50 3 -3 43 -25 90 -49 47 -24 90
-47 95 -51 9 -6 114 -38 185 -57 14 -3 78 -7 143 -9 102 -2 128 1 185 21 102
35 147 65 219 149 21 24 54 135 56 189 4 74 -26 185 -75 280 -23 45 -45 84
-48 87 -3 3 -19 23 -36 45 -51 70 -119 128 -279 243 -31 21 -179 87 -181 80 0
-2 -7 2 -15 9 -8 7 -30 15 -49 18 -19 3 -58 12 -86 19 -47 12 -243 15 -284 4
-90 -24 -147 -55 -203 -112 -48 -47 -66 -75 -96 -149 -6 -16 -20 -31 -31 -34
-11 -3 -20 -9 -20 -13 0 -6 -51 -32 -70 -36 -3 0 -17 -6 -33 -12 -15 -7 -38
-14 -50 -17 -12 -2 -41 -9 -63 -14 -43 -11 -280 -9 -346 3 -20 3 -49 11 -65
17 -15 6 -36 12 -45 14 -33 7 -137 57 -152 74 -8 9 -16 30 -19 46 -8 54 -49
129 -94 173 -44 42 -129 93 -167 99 -27 5 -48 25 -68 65 -46 92 -61 171 -45
243 3 17 9 43 12 59 3 16 9 34 13 40 4 6 7 13 7 16 0 3 13 32 29 65 32 64 72
115 91 115 17 0 181 87 202 107 12 10 97 42 126 47 7 1 17 5 23 9 6 3 29 9 50
12 22 4 50 8 64 11 51 10 147 19 205 19 67 0 204 -13 217 -21 4 -3 17 -7 28
-10 11 -2 30 -6 41 -9 61 -13 158 -56 195 -86 17 -14 167 -86 197 -94 4 -2 9
-4 12 -5 3 -1 10 -4 15 -5 6 -1 11 -3 13 -5 1 -1 9 -3 17 -5 8 -1 35 -8 60
-15 141 -38 330 -45 435 -15 33 9 70 19 83 22 12 3 22 9 22 14 0 5 5 9 10 9
12 0 40 27 61 60 21 33 19 104 -5 155 -21 43 -151 175 -172 175 -4 0 -15 6
-23 13 -18 15 -187 92 -223 102 -5 2 -9 3 -10 4 -2 2 -14 5 -28 7 -14 3 -43
10 -65 16 -22 6 -47 12 -55 14 -225 37 -407 14 -495 -63 -24 -21 -44 -43 -44
-50 -1 -13 -31 -32 -62 -39 -10 -2 -29 -6 -41 -9 -101 -24 -280 -24 -388 0
-14 3 -36 8 -50 11 -14 3 -47 29 -75 59 -40 43 -63 58 -115 75 -36 12 -78 24
-95 26 -38 6 -184 11 -188 7z"/>
<path d="M786 4253 c-1 -1 -13 -3 -26 -6 -48 -7 -112 -31 -173 -64 -34 -18
-70 -36 -79 -39 -10 -4 -18 -10 -18 -15 0 -5 -5 -9 -11 -9 -6 0 -16 -6 -24
-12 -7 -7 -30 -26 -50 -43 -55 -44 -125 -114 -170 -170 -21 -28 -42 -52 -45
-55 -4 -3 -24 -34 -45 -70 -22 -36 -47 -76 -57 -89 -10 -13 -18 -29 -18 -36 0
-7 -8 -30 -17 -51 -9 -22 -18 -42 -19 -46 -1 -5 -2 -9 -4 -10 -1 -2 -3 -10 -5
-18 -2 -8 -7 -26 -11 -40 -15 -54 -13 -194 3 -243 51 -156 235 -193 464 -91
35 15 66 31 69 34 3 3 23 17 45 30 22 13 45 29 52 35 6 5 33 28 60 50 60 50
89 79 133 134 19 23 40 48 45 54 38 45 149 239 143 250 -1 1 4 12 10 24 39 72
59 219 41 301 -7 31 -13 59 -14 62 -3 18 -53 81 -67 86 -10 3 -18 9 -18 14 0
14 -64 31 -130 33 -34 1 -63 1 -64 0z"/>
<path d="M2519 2726 c-2 -2 -29 -6 -59 -9 -30 -3 -66 -9 -80 -12 -14 -3 -32
-8 -40 -10 -8 -2 -16 -4 -17 -5 -2 -2 -6 -3 -10 -5 -5 -1 -17 -5 -28 -9 -11
-4 -33 -13 -48 -19 -16 -5 -34 -15 -40 -21 -7 -6 -31 -24 -54 -40 -54 -36
-137 -119 -173 -172 -27 -38 -102 -184 -95 -184 1 0 -6 -30 -15 -66 -21 -77
-21 -235 -1 -321 7 -29 13 -56 13 -60 2 -12 90 -186 102 -201 96 -116 250
-229 336 -246 3 -1 11 -5 18 -9 6 -5 12 -6 12 -3 0 2 15 0 33 -5 88 -27 206
-28 327 -4 98 21 243 104 325 188 90 93 140 172 176 282 37 114 42 259 14 395
-10 48 -73 192 -87 198 -5 2 -8 8 -8 13 0 13 -35 54 -105 124 -66 67 -93 86
-175 126 -84 40 -107 47 -210 64 -105 17 -105 17 -111 11z"/>
<path d="M3199 1025 c-99 -36 -129 -62 -158 -139 -16 -43 -20 -92 -26 -319
l-8 -267 107 0 106 0 0 223 c0 122 5 238 10 258 7 26 21 41 49 57 37 21 49 22
229 20 170 -3 192 -5 211 -22 34 -31 41 -80 41 -314 l0 -223 458 1 c501 1 516
3 562 58 28 34 32 53 33 162 0 89 -7 135 -24 158 -25 32 -50 54 -67 57 -9 2
-17 4 -17 5 0 7 -85 11 -298 14 -137 2 -251 6 -253 9 -11 11 -11 87 -1 101 10
12 54 15 257 18 237 3 246 4 283 27 21 13 47 41 57 62 39 75 62 70 -342 67
-325 -3 -366 -5 -395 -21 -34 -18 -74 -82 -66 -104 3 -7 0 -13 -6 -13 -6 0
-11 6 -11 13 0 26 -59 75 -121 100 -63 26 -67 26 -319 25 -183 0 -265 -4 -291
-13z m829 -398 c31 -12 92 -16 301 -18 171 -2 264 -6 270 -13 5 -6 8 -33 7
-61 -2 -75 0 -75 -346 -75 l-295 0 0 109 c-1 91 1 106 12 91 7 -10 30 -25 51
-33z"/>
<path d="M1409 1026 c-2 -2 -29 -6 -60 -9 -59 -6 -132 -31 -162 -56 -22 -19
-65 -90 -74 -123 -4 -12 -8 -206 -10 -430 l-4 -408 61 0 c118 0 150 40 150
190 l0 90 238 1 c277 2 283 2 349 22 61 18 98 48 126 102 22 42 24 47 34 105
7 39 6 251 -2 290 -7 37 -13 65 -15 65 -1 0 -3 8 -5 17 -7 38 -47 76 -105 102
-50 22 -84 29 -183 37 -126 9 -330 12 -338 5z m363 -187 c10 0 30 -12 46 -27
27 -25 29 -35 36 -122 4 -54 2 -109 -3 -128 -5 -18 -10 -35 -9 -38 0 -12 -36
-53 -43 -48 -4 2 -10 0 -14 -5 -3 -6 -104 -10 -241 -11 l-236 -1 4 165 c3 156
4 166 26 186 12 12 41 25 65 29 33 7 200 7 369 0z"/>
</g>
</svg>
